<svg width="1600" height="520" viewBox="0 0 1600 520" fill="none" xmlns="http://www.w3.org/2000/svg">
  <defs>
    <linearGradient id="bg" x1="0" y1="0" x2="1600" y2="520" gradientUnits="userSpaceOnUse">
      <stop stop-color="#07111F"/>
      <stop offset="0.55" stop-color="#0F2C53"/>
      <stop offset="1" stop-color="#123D6A"/>
    </linearGradient>
    <linearGradient id="panel" x1="0" y1="0" x2="1" y2="1">
      <stop stop-color="#0D2748" stop-opacity="0.95"/>
      <stop offset="1" stop-color="#0A1C34" stop-opacity="0.85"/>
    </linearGradient>
    <linearGradient id="accent" x1="0" y1="0" x2="1" y2="1">
      <stop stop-color="#38BDF8"/>
      <stop offset="1" stop-color="#60A5FA"/>
    </linearGradient>
    <filter id="shadow" x="-20%" y="-20%" width="140%" height="140%">
      <feDropShadow dx="0" dy="12" stdDeviation="18" flood-color="#000000" flood-opacity="0.28"/>
    </filter>
  </defs>

  <rect width="1600" height="520" rx="28" fill="url(#bg)"/>
  <circle cx="1300" cy="110" r="180" fill="#38BDF8" opacity="0.08"/>
  <circle cx="1480" cy="380" r="220" fill="#60A5FA" opacity="0.08"/>
  <circle cx="180" cy="420" r="150" fill="#22C55E" opacity="0.06"/>

  <g opacity="0.18">
    <path d="M0 420C150 360 250 360 400 420C550 480 650 480 800 420C950 360 1050 360 1200 420C1350 480 1450 480 1600 420" stroke="#7DD3FC" stroke-width="2"/>
    <path d="M0 385C150 325 250 325 400 385C550 445 650 445 800 385C950 325 1050 325 1200 385C1350 445 1450 445 1600 385" stroke="#93C5FD" stroke-width="2"/>
  </g>

  <g filter="url(#shadow)">
    <rect x="940" y="86" width="210" height="148" rx="22" fill="url(#panel)" stroke="#2A5C8A"/>
    <rect x="1170" y="122" width="240" height="170" rx="22" fill="url(#panel)" stroke="#2A5C8A"/>
    <rect x="990" y="250" width="320" height="176" rx="22" fill="url(#panel)" stroke="#2A5C8A"/>

    <rect x="970" y="112" width="150" height="12" rx="6" fill="#93C5FD" opacity="0.95"/>
    <rect x="970" y="138" width="112" height="10" rx="5" fill="#60A5FA" opacity="0.75"/>
    <rect x="970" y="172" width="38" height="34" rx="8" fill="#22C55E" opacity="0.9"/>
    <rect x="1018" y="172" width="38" height="34" rx="8" fill="#38BDF8" opacity="0.9"/>
    <rect x="1066" y="172" width="38" height="34" rx="8" fill="#F59E0B" opacity="0.9"/>

    <rect x="1200" y="150" width="180" height="12" rx="6" fill="#93C5FD" opacity="0.95"/>
    <rect x="1200" y="178" width="120" height="10" rx="5" fill="#60A5FA" opacity="0.75"/>
    <path d="M1214 252L1250 214L1290 238L1332 188L1368 220" stroke="#38BDF8" stroke-width="7" stroke-linecap="round" stroke-linejoin="round"/>
    <circle cx="1214" cy="252" r="7" fill="#38BDF8"/>
    <circle cx="1250" cy="214" r="7" fill="#38BDF8"/>
    <circle cx="1290" cy="238" r="7" fill="#38BDF8"/>
    <circle cx="1332" cy="188" r="7" fill="#38BDF8"/>
    <circle cx="1368" cy="220" r="7" fill="#38BDF8"/>

    <rect x="1020" y="280" width="214" height="12" rx="6" fill="#93C5FD" opacity="0.95"/>
    <rect x="1020" y="306" width="154" height="10" rx="5" fill="#60A5FA" opacity="0.75"/>
    <rect x="1020" y="338" width="260" height="22" rx="11" fill="#0F355B"/>
    <rect x="1020" y="338" width="152" height="22" rx="11" fill="url(#accent)"/>
    <rect x="1020" y="372" width="260" height="22" rx="11" fill="#0F355B"/>
    <rect x="1020" y="372" width="202" height="22" rx="11" fill="#22C55E"/>
  </g>

  <g>
    <text x="96" y="170" fill="#E5F3FF" font-family="Segoe UI, Arial, sans-serif" font-size="54" font-weight="700">Azure Security Workbooks</text>
    <text x="98" y="222" fill="#B9D8F5" font-family="Segoe UI, Arial, sans-serif" font-size="23" font-weight="400">
      Reusable dashboards for identity, posture, governance and security exceptions
    </text>
  </g>

  <g transform="translate(98 280)">
    <rect x="0" y="0" width="212" height="52" rx="14" fill="#0C2A49" stroke="#2D6EA5"/>
    <circle cx="28" cy="26" r="10" fill="#38BDF8"/>
    <text x="50" y="32" fill="#EAF5FF" font-family="Segoe UI, Arial, sans-serif" font-size="21" font-weight="600">Entra IAM</text>

    <rect x="230" y="0" width="316" height="52" rx="14" fill="#0C2A49" stroke="#2D6EA5"/>
    <circle cx="258" cy="26" r="10" fill="#22C55E"/>
    <text x="280" y="32" fill="#EAF5FF" font-family="Segoe UI, Arial, sans-serif" font-size="21" font-weight="600">Defender Health Assessment</text>

    <rect x="0" y="72" width="438" height="52" rx="14" fill="#0C2A49" stroke="#2D6EA5"/>
    <circle cx="28" cy="98" r="10" fill="#F59E0B"/>
    <text x="50" y="104" fill="#EAF5FF" font-family="Segoe UI, Arial, sans-serif" font-size="21" font-weight="600">Disabled &amp; Exempted Policies</text>
  </g>
</svg>
